<svg xmlns="http://www.w3.org/2000/svg" viewBox="0 0 290 120">
  <!-- mp3bat horizontal lockup — wordmark outlined (no web font needed) -->
  <defs>
    <linearGradient id="tile" x1="0" y1="0" x2="1" y2="1">
      <stop offset="0%" stop-color="#34d1bf"/>
      <stop offset="100%" stop-color="#1fa89a"/>
    </linearGradient>
  </defs>

  <!-- mark on a light-sea-green tile, dark-blue glyph -->
  <rect x="12" y="20" width="80" height="80" rx="18" fill="url(#tile)"/>
  <g transform="translate(52,60) scale(0.62) translate(-62,-59.5)" fill="#0b1220">
    <rect x="51" y="48" width="4" height="38" rx="2"/>
    <rect x="44.5" y="52" width="4" height="34" rx="2"/>
    <rect x="38" y="58" width="4" height="28" rx="2"/>
    <rect x="31.5" y="64" width="4" height="22" rx="2"/>
    <rect x="25" y="72" width="4" height="14" rx="2"/>
    <rect x="65" y="48" width="4" height="38" rx="2"/>
    <rect x="71.5" y="52" width="4" height="34" rx="2"/>
    <rect x="78" y="58" width="4" height="28" rx="2"/>
    <rect x="84.5" y="64" width="4" height="22" rx="2"/>
    <rect x="91" y="72" width="4" height="14" rx="2"/>
    <rect x="56.5" y="48" width="7" height="38" rx="3.5"/>
    <polygon points="57,49 53,33 60,46"/>
    <polygon points="63,49 67,33 60,46"/>
  </g>

  <!-- wordmark (outlined): "mp3" ink + "bat" light sea green -->
  <path fill="#e7eef8" d="M118.81 76L116.05 76L116.05 53.64L118.72 53.64L118.72 56.59L119.27 56.59Q119.96 55.35 121.48 54.27Q122.99 53.18 125.80 53.18Q128.51 53.18 130.19 54.43Q131.87 55.67 132.61 57.42L133.16 57.42Q133.94 55.67 135.60 54.43Q137.25 53.18 140.24 53.18Q142.54 53.18 144.25 54.13Q145.95 55.07 146.91 56.75Q147.88 58.43 147.88 60.68L147.88 76L145.12 76L145.12 60.96Q145.12 58.57 143.67 57.12Q142.22 55.67 139.60 55.67Q136.93 55.67 135.14 57.39Q133.34 59.12 133.34 62.43L133.34 76L130.58 76L130.58 60.96Q130.58 58.57 129.13 57.12Q127.69 55.67 125.06 55.67Q122.40 55.67 120.60 57.39Q118.81 59.12 118.81 62.43 M156.96 85.20L154.20 85.20L154.20 53.64L156.87 53.64L156.87 57.74L157.42 57.74Q158.39 55.90 160.43 54.45Q162.48 53 166.16 53Q169.15 53 171.59 54.40Q174.03 55.81 175.47 58.38Q176.92 60.96 176.92 64.55L176.92 65.10Q176.92 68.64 175.50 71.24Q174.07 73.84 171.63 75.24Q169.20 76.64 166.16 76.64Q163.72 76.64 162 75.98Q160.27 75.31 159.19 74.25Q158.11 73.19 157.51 72.09L156.96 72.09L156.96 85.20M165.52 74.16Q169.33 74.16 171.70 71.72Q174.07 69.28 174.07 65.01L174.07 64.64Q174.07 60.36 171.70 57.92Q169.33 55.48 165.52 55.48Q161.74 55.48 159.35 57.92Q156.96 60.36 156.96 64.64L156.96 65.01Q156.96 69.28 159.35 71.72Q161.74 74.16 165.52 74.16 M192.31 76.64Q188.95 76.64 186.30 75.36Q183.66 74.07 182.16 71.61Q180.67 69.15 180.67 65.65L180.67 64.78L183.52 64.78L183.52 65.70Q183.52 69.61 185.96 71.84Q188.40 74.07 192.31 74.07Q196.26 74.07 198.47 71.95Q200.68 69.84 200.68 66.62L200.68 66.34Q200.68 63.95 199.55 62.48Q198.42 61 196.51 60.29Q194.61 59.58 192.31 59.58L187.57 59.58L187.57 55.71L200.63 46.84L200.63 46.38L181.40 46.38L181.40 43.80L203.48 43.80L203.48 47.94L190.56 56.73L190.56 57.19L193.09 57.19Q196.08 57.19 198.42 58.22Q200.77 59.26 202.15 61.26Q203.53 63.26 203.53 66.25L203.53 66.71Q203.53 69.70 202.15 71.93Q200.77 74.16 198.24 75.40Q195.71 76.64 192.31 76.64"/>
  <path fill="#34d1bf" d="M220.61 76.64Q216.93 76.64 214.89 75.19Q212.84 73.75 211.87 71.91L211.32 71.91L211.32 76L208.65 76L208.65 43.80L211.41 43.80L211.41 57.55L211.97 57.55Q212.56 56.40 213.64 55.37Q214.73 54.33 216.45 53.67Q218.18 53 220.61 53Q223.65 53 226.09 54.40Q228.53 55.81 229.95 58.41Q231.38 61 231.38 64.55L231.38 65.10Q231.38 68.64 229.93 71.24Q228.48 73.84 226.04 75.24Q223.60 76.64 220.61 76.64M219.97 74.16Q223.79 74.16 226.16 71.72Q228.53 69.28 228.53 65.01L228.53 64.64Q228.53 60.36 226.16 57.92Q223.79 55.48 219.97 55.48Q216.20 55.48 213.81 57.92Q211.41 60.36 211.41 64.64L211.41 65.01Q211.41 69.28 213.81 71.72Q216.20 74.16 219.97 74.16 M243.72 76.64Q241.38 76.64 239.47 75.84Q237.56 75.03 236.46 73.47Q235.35 71.91 235.35 69.70Q235.35 67.44 236.46 65.97Q237.56 64.50 239.45 63.76Q241.33 63.03 243.63 63.03L251.82 63.03L251.82 61.23Q251.82 58.52 250.26 57Q248.69 55.48 245.70 55.48Q242.76 55.48 241.03 56.93Q239.31 58.38 238.71 60.82L236.04 60.04Q236.59 58.06 237.79 56.47Q238.99 54.89 240.96 53.94Q242.94 53 245.70 53Q249.93 53 252.26 55.21Q254.58 57.42 254.58 61.37L254.58 72.23Q254.58 73.61 255.87 73.61L258.03 73.61L258.03 76L255.09 76Q253.66 76 252.83 75.15Q252 74.30 252 72.83L252 72.50L251.54 72.50Q250.95 73.52 250 74.48Q249.06 75.45 247.54 76.05Q246.02 76.64 243.72 76.64M243.91 74.16Q247.45 74.16 249.63 72.02Q251.82 69.88 251.82 65.97L251.82 65.42L243.68 65.42Q241.29 65.42 239.70 66.45Q238.11 67.49 238.11 69.65Q238.11 71.81 239.75 72.99Q241.38 74.16 243.91 74.16 M275.67 76L269.87 76Q268.08 76 267.18 75.08Q266.28 74.16 266.28 72.50L266.28 56.13L259.11 56.13L259.11 53.64L266.28 53.64L266.28 45.27L269.04 45.27L269.04 53.64L276.86 53.64L276.86 56.13L269.04 56.13L269.04 72.14Q269.04 73.52 270.42 73.52L275.67 73.52"/>
</svg>
